#!OML:ASF F:\VICON\USERDATA\INSTALL\rory3\rory3.ASF
:FULLY-SPECIFIED
:DEGREES
69
root 0.6993562303889176 17.88003091271861 34.58177119903011 -3.3733538650358694 -0.6010639692085016 -0.18989724818685483
lfemur -2.3823138099444234 -3.308529135448486 -22.949550177149654
ltibia 37.58906553493959
lfoot -14.661710803933257 2.6383784288157344
ltoes -11.326697008544677
rfemur -12.951549917937598 3.2488865279505923 21.02685826621418
rtibia 53.57977224568003
rfoot -15.86564244571842 -8.552364412490242
rtoes -1.5172076294241301
lowerback 9.583920244326078 0.7049902518135474 -0.1387589484838374
upperback 0.4826031967004033 0.7819081224696951 0.9668969198544947
thorax -4.909022104235118 0.45160652703288295 1.0355710011880266
lowerneck -16.745640799858254 -3.0220520741288426 -1.5080198927479005
upperneck 21.4081102392873 -3.9525851566527113 0.7757003572070528
head 9.74307974785306 -1.8912813276457694 0.01497692224157196
lclavicle -2.797198174511438e-15 -4.160076164046478e-16
lhumerus -27.954694247796496 -3.0334153163801103 83.04557795705564
lradius 26.332195743882124
lwrist 7.5984029185764825
lhand -27.639928985933736 21.840848681424475
lfingers 7.1250199999999975
lthumb -1.0795990004970373 52.00346874137833
rclavicle -2.7971981744581284e-15 -4.160076163685748e-16
rhumerus -29.40688547344496 -17.305270266753514 -81.17021770493251
rradius 25.701880451599976
rwrist 5.272451567120736
rhand -17.327787934622023 21.567336149864722
rfingers 7.1250199999999975
rthumb 8.937009692415332 -8.16551911868273
70
root 0.7359568023062673 17.880967256875984 35.55682810662499 -3.355189884804981 -0.6322388093821523 0.17448452230916311
lfemur -1.2995429167780976 -3.5222495171350716 -23.577805926278177
ltibia 37.034999606528494
lfoot -14.565397079921603 3.042738171936379
ltoes -12.203641728169176
rfemur -14.313091292604726 3.1077863362296707 20.69166622357367
rtibia 53.585371184263884
rfoot -15.757893676256106 -8.497865897934718
rtoes -0.365293146318447
lowerback 9.556699221959216 0.4935762451770678 -0.49176957702130686
upperback 0.4836049818701261 0.43646602426873493 0.9491020183293043
thorax -4.93452432521346 0.26966398153858423 1.3635405551434159
lowerneck -16.79923858661483 -2.9930622733335617 -1.4994904793321973
upperneck 21.293779142312584 -3.9118293216374784 0.8066051808731152
head 9.682759494023378 -1.8734657483854407 0.04249790212286887
lclavicle -2.7971981745183883e-15 -4.1600761640893685e-16
lhumerus -26.762448297892774 -3.667028364800398 82.9617624799482
lradius 26.707626933710422
lwrist 7.474527082832124
lhand -27.454521163990776 21.56968954714087
lfingers 7.1250199999999975
lthumb -0.9643968760945947 51.60442898823698
rclavicle -2.7971981744589275e-15 -4.160076163687722e-16
rhumerus -29.684716255902746 -17.914938449631812 -81.10408852221074
rradius 25.63922830319424
rwrist 5.010202186698003
rhand -17.30579741378111 21.603687892819256
rfingers 7.1250199999999975
rthumb 9.026417295114273 -8.18235650210383
71
root 0.7923972124976606 17.917780153979788 36.936726353575146 -2.89842598194154 -0.3289478742567038 -0.2986489117095068
lfemur -0.7771214519548932 -3.6398873870717967 -23.235988384347046
ltibia 37.15933509538913
lfoot -14.513493133548454 3.3429563415081667
ltoes -11.310210294405703
rfemur -15.112347377811918 3.0001141146013426 21.257169957681633
rtibia 52.08592688156815
rfoot -15.581048637736835 -8.426173683926645
rtoes -0.5824774774626511
lowerback 9.463122274037378 0.1634484206327984 -0.1445108521263616
upperback 0.4216907419222074 0.07713346831229595 1.1104790412491148
thorax -4.972993267978702 0.07654332813312692 1.6917180706264525
lowerneck -16.850113719813656 -2.964287392265098 -1.494351194828838
upperneck 21.24963221115696 -3.8561695842616173 0.7479270574154321
head 9.642157303439284 -1.8519914150730743 0.035690845876079874
lclavicle -2.797198174527178e-15 -4.160076164144603e-16
lhumerus -25.67441873111325 -4.078767654385889 82.89938680404013
lradius 27.205926444628304
lwrist 7.557996252799998
lhand -27.029299352072293 22.534345799891476
lfingers 7.1250199999999975
lthumb -0.7076782564622535 52.31008813464585
rclavicle -2.7971981744622585e-15 -4.160076163706896e-16
rhumerus -29.855995396263427 -18.416059037752177 -81.06007069793401
rradius 25.631246593333174
rwrist 4.888316323766513
rhand -17.302687590802325 21.614080628007713
rfingers 7.1250199999999975
rthumb 9.021972843459055 -8.264395130564914
72
root 0.8402156864895725 17.94938913251468 37.73713172752389 -2.671780075606246 -0.39635015527729056 -0.4686249156987683
lfemur 0.5862160928466249 -3.7038091217596483 -22.999415903710048
ltibia 37.14661034076779
lfoot -14.36347486492129 3.5655843956520163
ltoes -7.334607871842779
rfemur -15.809798373376161 3.0126095689451553 21.48136955628038
rtibia 50.51414040749218
rfoot -15.374574902032077 -8.282006695400753
rtoes -0.5334439947486005
lowerback 9.401778263205832 -0.1348108177912296 -0.17333879169218736
upperback 0.3769743912743096 -0.2860401370026495 1.2621917474526323
thorax -4.996558641913437 -0.11818981404999684 2.0605966026199836
lowerneck -16.88532969430933 -2.936343791053215 -1.5043269708195237
upperneck 21.265396008323705 -3.8051647266391764 0.7001975022186052
head 9.6279700933567 -1.8314394541955379 0.035674341357324085
lclavicle -2.7971981745264047e-15 -4.1600761641362185e-16
lhumerus -24.790429569539224 -4.29401905794795 82.80289285248203
lradius 27.71120185570746
lwrist 7.628478172832175
lhand -26.881477870362996 22.556571772132607
lfingers 7.1250199999999975
lthumb -0.5804983530409265 52.309548051514284
rclavicle -2.7971981744674393e-15 -4.1600761637378684e-16
rhumerus -29.975671043018696 -18.822696605677756 -81.05379722259654
rradius 25.645337678459985
rwrist 4.693903707940081
rhand -17.29440310952711 21.644744427716216
rfingers 7.1250199999999975
rthumb 9.083143597312933 -8.125000207526313
73
root 0.8886133135044152 17.971640405081164 38.47164756874829 -2.593451529759781 -0.6603079626417796 -0.5573560624231586
lfemur 1.0608398160688974 -3.7332966918221873 -23.043922908540285
ltibia 37.574115111011544
lfoot -14.267806578873973 3.6938788599356993
ltoes -9.8270689794217
rfemur -16.261932670673485 3.2024083421584244 21.805180600436554
rtibia 48.78600835974365
rfoot -15.402020047409174 -8.15887134756037
rtoes -0.5634095212797736
lowerback 9.335630904509511 -0.35717577149546675 -0.14493930316279968
upperback 0.36222156617831053 -0.5651011920039322 1.3945439254199712
thorax -4.97455250888786 -0.28777875527022656 2.333190631433034
lowerneck -16.909646394845375 -2.903439817821631 -1.5233688015835658
upperneck 21.305775600967053 -3.745251486005126 0.6584544275553689
head 9.627897776255187 -1.8079327964612009 0.039139196485238115
lclavicle -2.7971981745234555e-15 -4.1600761641132873e-16
lhumerus -24.051203159697646 -4.224285662237005 82.72503227643558
lradius 28.209420737477217
lwrist 7.544196906143453
lhand -26.75216809659809 22.343488405482766
lfingers 7.1250199999999975
lthumb -0.405722214171787 52.178176532022626
rclavicle -2.797198174474029e-15 -4.160076163778564e-16
rhumerus -30.208004349295706 -19.119131953783075 -80.813150695838
rradius 25.697097995826358
rwrist 3.9893297519095428
rhand -17.27443148921539 21.741830170395307
rfingers 7.1250199999999975
rthumb 9.099544751983533 -8.005989436716002
74
root 0.9116886582795602 17.98332192287987 39.0208590533539 -2.592098434851404 -1.0682191499020233 -0.5867580112945086
lfemur 2.0113345016335256 -3.6872353684773236 -22.956109660456203
ltibia 37.89043490217831
lfoot -14.074234161932289 3.814027648682833
ltoes -7.477600090284262
rfemur -16.609190248494016 3.489042206167285 22.09480350515526
rtibia 47.047640980423594
rfoot -15.676979372767626 -8.075823239277094
rtoes -0.38372563171776664
lowerback 9.270466757318816 -0.49338738397934245 -0.19253824085278826
upperback 0.33065561767447504 -0.7836386724772264 1.4938989369756492
thorax -4.939907619023425 -0.3747417639179096 2.6314177277879542
lowerneck -16.934099524582393 -2.8686100872939133 -1.5423434754187875
upperneck 21.398213909756706 -3.691504248717647 0.6065592606659818
head 9.678010987612119 -1.7865423282240767 0.029049719791271744
lclavicle -2.7971981745205876e-15 -4.160076164091088e-16
lhumerus -23.595619487312717 -3.8604084453842784 82.69674848413585
lradius 28.615390024918966
lwrist 7.411147078265866
lhand -26.769619333404588 22.230512767945243
lfingers 7.1250199999999975
lthumb -0.40408901561341576 52.134915062722996
rclavicle -2.797198174477372e-15 -4.160076163797914e-16
rhumerus -30.56387523321 -19.622538998163524 -80.3860129263093
rradius 25.804502078084614
rwrist 3.607820323927088
rhand -17.278534246000252 21.80114735175745
rfingers 7.1250199999999975
rthumb 9.179993003057321 -7.8026553679421005
